<?xml version="1.0" encoding="utf-8"?>
<!-- Generator: Adobe Illustrator 27.7.0, SVG Export Plug-In . SVG Version: 6.00 Build 0)  -->
<svg version="1.1" id="Layer_1" xmlns="http://www.w3.org/2000/svg" xmlns:xlink="http://www.w3.org/1999/xlink" x="0px" y="0px"
	 viewBox="0 0 200 69.9" style="enable-background:new 0 0 200 69.9;" xml:space="preserve">
<style type="text/css">
	.st0{fill:#D4421A;}
	.st1{fill:#FFFFFF;}
</style>
<polygon class="st0" points="181.1,69.9 -0.1,69.9 18.6,-0.1 199.9,-0.1 "/>
<g>
	<path class="st1" d="M28.3,52.4V9.2h32.5v8.4H37.7v8.8h20.4v8.5H37.7V44h23.5v8.5L28.3,52.4L28.3,52.4z"/>
	<path class="st1" d="M90.1,52.4v-4.7c-1.2,1.5-2.5,2.8-4.2,3.8S82.2,53,79.8,53c-1.9,0-3.8-0.4-5.6-1.1c-1.8-0.7-3.4-1.8-4.8-3.3
		c-1.4-1.5-2.5-3.2-3.4-5.4c-0.8-2.1-1.3-4.6-1.3-7.3v-0.1c0-2.8,0.4-5.2,1.3-7.3c0.8-2.1,1.9-3.9,3.3-5.4c1.4-1.5,3-2.6,4.8-3.3
		s3.7-1.1,5.7-1.1c2.5,0,4.6,0.5,6.2,1.5c1.6,1,3,2.1,4.1,3.4V7.4h9.4v45H90.1L90.1,52.4z M90.2,35.8c0-1.4-0.2-2.6-0.7-3.8
		s-1-2.1-1.7-2.9s-1.6-1.4-2.5-1.9s-2-0.6-3.1-0.6S80,26.9,79,27.3s-1.8,1.1-2.6,1.9c-0.7,0.8-1.3,1.8-1.8,2.9
		c-0.4,1.1-0.7,2.4-0.7,3.8v0.1c0,1.4,0.2,2.6,0.7,3.8s1,2.1,1.8,2.9c0.7,0.8,1.6,1.4,2.6,1.9s2,0.7,3.1,0.7s2.2-0.2,3.1-0.7
		s1.8-1.1,2.5-1.9c0.7-0.8,1.3-1.8,1.7-2.9s0.7-2.4,0.7-3.8C90.2,35.9,90.2,35.8,90.2,35.8z"/>
	<path class="st1" d="M137.5,52.9c-0.8,2.2-1.9,4-3.5,5.4c-1.5,1.4-3.5,2.4-5.8,3.1s-5,1-8.1,1c-2.7,0-5.3-0.3-7.8-0.9
		c-2.5-0.6-4.8-1.5-6.8-2.6l3.2-7c1.7,1,3.5,1.7,5.2,2.2c1.8,0.5,3.7,0.8,5.9,0.8c3.2,0,5.6-0.8,7.1-2.3c1.5-1.5,2.3-3.8,2.3-6.7
		v-1.6c-1.4,1.7-2.9,3-4.6,4s-3.7,1.4-6.2,1.4c-1.9,0-3.8-0.3-5.6-1c-1.8-0.7-3.3-1.7-4.7-3c-1.4-1.3-2.4-2.9-3.2-4.8
		c-0.8-1.9-1.2-4.1-1.2-6.6v-0.1c0-2.5,0.4-4.7,1.2-6.6s1.9-3.5,3.3-4.8c1.4-1.3,2.9-2.3,4.7-3c1.8-0.7,3.6-1,5.5-1
		c2.6,0,4.7,0.5,6.3,1.4s3.1,2.1,4.4,3.5v-4.3h9.4V45C138.6,48.1,138.2,50.8,137.5,52.9L137.5,52.9z M129.4,34.1
		c0-1.1-0.2-2.1-0.6-3.1c-0.4-1-1-1.8-1.7-2.4c-0.7-0.7-1.6-1.2-2.6-1.6c-1-0.4-2.1-0.6-3.2-0.6s-2.2,0.2-3.2,0.6
		c-1,0.4-1.8,0.9-2.5,1.6s-1.3,1.5-1.7,2.4c-0.4,1-0.6,2-0.6,3.1v0.1c0,2.3,0.8,4.2,2.3,5.5c1.5,1.4,3.4,2.1,5.7,2.1
		c1.2,0,2.2-0.2,3.2-0.6c1-0.4,1.8-0.9,2.6-1.6s1.3-1.5,1.7-2.4c0.4-1,0.6-2,0.6-3.1L129.4,34.1L129.4,34.1z"/>
	<path class="st1" d="M175.4,38c0,0.3-0.1,0.7-0.1,1.2h-23c0.4,2.1,1.4,3.8,2.8,4.8s3.2,1.6,5.3,1.6c1.6,0,3-0.3,4.2-0.8
		c1.2-0.5,2.5-1.4,3.8-2.6l5.4,4.8c-1.6,1.9-3.5,3.5-5.7,4.5c-2.2,1.1-4.8,1.6-7.8,1.6c-2.5,0-4.8-0.4-6.9-1.2
		c-2.1-0.8-3.9-2-5.5-3.5c-1.5-1.5-2.8-3.3-3.6-5.4s-1.3-4.4-1.3-6.9V36c0-2.3,0.4-4.6,1.2-6.7c0.8-2.1,1.9-3.9,3.4-5.5
		s3.2-2.8,5.1-3.7c2-0.9,4.2-1.4,6.6-1.4c2.8,0,5.1,0.5,7.2,1.5s3.7,2.3,5,4s2.3,3.6,3,5.7s1,4.4,1,6.8v0.1
		C175.4,37.3,175.4,37.7,175.4,38L175.4,38z M164.1,28.2c-1.2-1.3-2.8-1.9-4.8-1.9s-3.6,0.6-4.8,1.9c-1.2,1.3-2,3-2.4,5.1h14.1
		C166,31.2,165.2,29.5,164.1,28.2z"/>
</g>
</svg>
