<?xml version="1.0" encoding="utf-8"?>
<!-- Generator: Adobe Illustrator 27.7.0, SVG Export Plug-In . SVG Version: 6.00 Build 0)  -->
<svg version="1.1" id="Layer_1" xmlns="http://www.w3.org/2000/svg" xmlns:xlink="http://www.w3.org/1999/xlink" x="0px" y="0px"
	 viewBox="0 0 459.9 100" style="enable-background:new 0 0 459.9 100;" xml:space="preserve">
<style type="text/css">
	.st0{fill:#191C1B;}
	.st1{fill-rule:evenodd;clip-rule:evenodd;fill:#00639C;}
</style>
<g>
	<path class="st0" d="M118.5,19.5H164v9.8h-34.7v16.7h30.8v9.8h-30.8v24.9h-10.7V19.5z"/>
	<path class="st0" d="M198,80.6v-5.7c-3.1,3.8-7.9,6.6-14.9,6.6c-8.7,0-16.4-5-16.4-14.2v-0.2c0-10.2,7.9-15.1,18.7-15.1
		c5.6,0,9.2,0.8,12.7,1.9v-0.9c0-6.4-4-9.9-11.4-9.9c-5.1,0-9,1.1-13.2,2.9l-2.9-8.5c5.1-2.3,10-3.8,17.6-3.8
		c13.6,0,20.2,7.2,20.2,19.5v27.3L198,80.6L198,80.6z M198.2,61.3c-2.7-1-6.5-1.8-10.6-1.8c-6.6,0-10.6,2.7-10.6,7.2v0.2
		c0,4.4,3.9,6.8,8.9,6.8c7,0,12.2-3.9,12.2-9.7C198.2,63.9,198.2,61.3,198.2,61.3z"/>
	<path class="st0" d="M218.6,17.4h11.4v10h-11.4C218.6,27.4,218.6,17.3,218.6,17.4z M219,34.5h10.6v46.1H219
		C219,80.6,219,34.5,219,34.5z"/>
	<path class="st0" d="M240.8,34.5h10.6v10.4c2.9-6.9,8.2-11.6,16.3-11.3v11.2H267c-9.2,0-15.7,6-15.7,18.2v17.5h-10.6V34.5
		L240.8,34.5z"/>
	<path class="st0" d="M272.7,50.2V50c0-17.4,13-31.6,31.5-31.6c11.3,0,18.1,3.9,23.9,9.5l-6.9,7.9c-4.9-4.5-10.1-7.6-17.1-7.6
		c-11.7,0-20.2,9.6-20.2,21.6V50c0,12,8.5,21.7,20.2,21.7c7.5,0,12.3-3.1,17.5-7.9l6.9,7c-6.4,6.6-13.4,10.8-24.8,10.8
		C286,81.6,272.7,67.7,272.7,50.2L272.7,50.2z"/>
	<path class="st0" d="M332.6,57.8v-0.2c0-13.2,10.5-24.1,24.6-24.1s24.5,10.7,24.5,23.9v0.2c0,13.1-10.5,24-24.7,24
		S332.6,70.9,332.6,57.8L332.6,57.8z M371.2,57.8v-0.2c0-8.1-5.9-14.8-14.1-14.8s-13.9,6.6-13.9,14.7v0.2c0,8,5.9,14.8,14,14.8
		S371.2,65.7,371.2,57.8L371.2,57.8z"/>
	<path class="st0" d="M389.9,34.5h10.6v7c3-4.1,7-7.9,14-7.9c6.6,0,11.3,3.2,13.7,8.1c3.8-4.9,8.6-8.1,15.6-8.1
		c10,0,16.1,6.4,16.1,17.6v29.4h-10.6V54.4c0-7.3-3.4-11.3-9.3-11.3s-9.9,4-9.9,11.4v26h-10.6V54.3c0-7.2-3.5-11.2-9.3-11.2
		s-9.9,4.4-9.9,11.5v25.9h-10.6L389.9,34.5L389.9,34.5z"/>
</g>
<g>
	<path class="st1" d="M44.1,13.8c0,0.5-0.3,0.8-0.8,0.8c-0.5,0-0.9-0.4-0.8-0.8v-2.2c0-0.4,0.3-0.8,0.8-0.8c0.4,0,0.8,0.4,0.8,0.8
		V13.8z M55.4,15.2V8.9h7.2L43.3,0L24,8.9h7.2v22h23.9l-7.8-7.8L55.4,15.2L55.4,15.2z M40.8,20c0-1.4,1.1-2.5,2.5-2.4
		c1.3,0,2.4,1.1,2.4,2.4s-1.1,2.5-2.4,2.5C41.9,22.5,40.8,21.4,40.8,20L40.8,20L40.8,20z"/>
	<path class="st1" d="M64.7,22.4c1-1,2.6-1,3.5,0c1,1,1,2.5,0,3.5c-1,0.9-2.5,0.9-3.5,0C63.7,24.9,63.7,23.3,64.7,22.4 M71.4,20.3
		c-0.3,0.3-0.8,0.3-1.2,0c-0.3-0.4-0.3-0.9,0-1.2l1.6-1.6c0.3-0.4,0.9-0.4,1.2,0c0.3,0.3,0.3,0.8,0,1.2L71.4,20.3z M78.5,29.3
		l4.3-4.4l5.1,5.1l-7.3-20l-20-7.3l5.1,5.1L50.1,23.2l17,17v-11C67.1,29.2,78.5,29.3,78.5,29.3z"/>
	<path class="st1" d="M79.9,40.9c1.4,0,2.5,1.1,2.5,2.4c0,1.4-1.1,2.5-2.5,2.5s-2.4-1.1-2.4-2.5C77.5,42,78.6,40.9,79.9,40.9
		 M86.2,44.1c-0.4,0-0.8-0.3-0.8-0.8c0-0.4,0.4-0.8,0.8-0.8h2.2c0.5,0,0.8,0.4,0.8,0.8c0,0.5-0.4,0.9-0.8,0.8H86.2z M84.8,55.5H91
		v7.2l9-19.3L91,24v7.1H69v24l7.8-7.8L84.8,55.5L84.8,55.5z"/>
	<path class="st1" d="M77.7,64.7c0.9,1,0.9,2.5,0,3.5c-1,1-2.6,1-3.5,0c-1-1-1-2.5,0-3.5C75.1,63.8,76.7,63.8,77.7,64.7 M79.8,71.5
		c-0.3-0.3-0.3-0.8,0-1.2c0.3-0.3,0.8-0.3,1.2,0l1.6,1.6c0.3,0.3,0.3,0.9,0,1.2c-0.3,0.3-0.9,0.3-1.2,0L79.8,71.5L79.8,71.5z
		 M70.8,78.5l4.3,4.4l-5,5.1l20-7.3l7.2-20l-5,5.1L76.7,50.1l-16.9,17h10.9L70.8,78.5L70.8,78.5z"/>
	<path class="st1" d="M22.3,35.3c-1-1-1-2.5,0-3.5c1-1,2.5-1,3.5,0c1,1,1,2.5,0,3.5C24.9,36.2,23.3,36.2,22.3,35.3 M20.2,28.5
		c0.3,0.3,0.3,0.8,0,1.2c-0.3,0.3-0.9,0.3-1.2,0l-1.6-1.6c-0.4-0.3-0.4-0.9,0-1.2c0.3-0.3,0.8-0.3,1.2,0L20.2,28.5L20.2,28.5z
		 M29.2,21.5l-4.4-4.4l5.1-5.1l-20,7.3l-7.3,20l5.1-5.1l15.5,15.6l17-16.9h-11L29.2,21.5L29.2,21.5z"/>
	<path class="st1" d="M20,59.1c-1.3,0-2.4-1.1-2.4-2.4c0-1.4,1.1-2.5,2.4-2.5c1.4,0,2.5,1.1,2.5,2.5C22.5,58.1,21.4,59.2,20,59.1
		 M13.8,55.9c0.5,0,0.8,0.4,0.8,0.8c0,0.4-0.4,0.8-0.8,0.8h-2.2c-0.4,0-0.8-0.4-0.8-0.8c0-0.5,0.4-0.8,0.8-0.8
		C11.5,55.9,13.8,55.9,13.8,55.9z M15.2,44.5H9v-7.2L0,56.7L9,76v-7.1h21.9v-24l-7.8,7.8L15.2,44.5z"/>
	<path class="st1" d="M35.2,77.7c-1,1-2.5,1-3.5,0c-0.9-0.9-0.9-2.5,0-3.4c1-1,2.6-1,3.5,0C36.2,75.2,36.2,76.7,35.2,77.7
		 M28.5,79.8c0.3-0.4,0.9-0.4,1.2,0c0.3,0.3,0.3,0.8,0,1.2l-1.6,1.6c-0.3,0.3-0.8,0.3-1.2,0c-0.3-0.4-0.3-0.9,0-1.2L28.5,79.8
		L28.5,79.8z M21.5,70.7l-4.4,4.4l-5-5.1l7.2,20l20,7.3l-5-5.1l15.5-15.5l-16.9-17v11L21.5,70.7L21.5,70.7z"/>
	<path class="st1" d="M59.2,80c0,1.4-1.2,2.5-2.5,2.5c-1.4,0-2.5-1.1-2.5-2.5c0-1.4,1.1-2.5,2.5-2.5C58,77.5,59.1,78.6,59.2,80
		 M55.8,86.2c0-0.4,0.4-0.8,0.8-0.8c0.5,0,0.8,0.4,0.8,0.8v2.2c0,0.4-0.4,0.8-0.8,0.8c-0.5,0-0.8-0.4-0.8-0.8V86.2z M44.5,84.8v6.3
		h-7.2l19.3,8.9L76,91.1h-7.2v-22h-24l7.8,7.8L44.5,84.8L44.5,84.8z"/>
</g>
</svg>
